<svg width="4677" height="2240" viewBox="0 0 4677 2240" fill="none" xmlns="http://www.w3.org/2000/svg">
<path d="M1055.29 745V278.8H1234.44C1327.68 278.8 1388.95 334.744 1388.95 421.99C1388.95 509.236 1327.68 565.846 1234.44 565.846H1113.23V745H1055.29ZM1229.78 332.08H1113.23V512.566H1229.11C1290.39 512.566 1329.68 477.268 1329.68 421.99C1329.68 366.712 1291.05 332.08 1229.78 332.08ZM1457.39 745V278.8H1635.87C1729.11 278.8 1791.05 334.744 1791.05 421.99C1791.05 487.258 1751.76 537.874 1691.82 554.524L1796.38 745H1731.11L1632.54 565.846H1515.33V745H1457.39ZM1631.88 332.08H1515.33V512.566H1631.21C1692.48 512.566 1731.78 476.602 1731.78 421.99C1731.78 367.378 1692.48 332.08 1631.88 332.08ZM2293.56 511.9C2293.56 649.096 2202.32 748.996 2071.11 748.996C1939.91 748.996 1848.67 649.096 1848.67 511.9C1848.67 374.704 1939.91 274.804 2071.11 274.804C2202.32 274.804 2293.56 374.704 2293.56 511.9ZM1907.94 511.9C1907.94 619.126 1973.88 695.716 2071.11 695.716C2168.35 695.716 2234.28 619.126 2234.28 511.9C2234.28 404.674 2168.35 328.084 2071.11 328.084C1973.88 328.084 1907.94 404.674 1907.94 511.9ZM2427.46 630.448V278.8H2485.4V635.11C2485.4 707.038 2447.44 745 2375.51 745H2314.91V691.72H2368.19C2410.15 691.72 2427.46 672.406 2427.46 630.448ZM2582.38 745V278.8H2879.42V332.08H2640.32V481.264H2839.46V534.544H2640.32V691.72H2888.07V745H2582.38ZM3144.62 748.996C3010.75 748.996 2926.84 654.424 2926.84 511.9C2926.84 370.708 3014.08 274.804 3149.28 274.804C3252.51 274.804 3327.77 334.744 3345.08 431.314H3283.81C3265.83 366.712 3216.55 328.084 3146.62 328.084C3048.71 328.084 2986.11 404.008 2986.11 511.9C2986.11 619.126 3046.05 695.716 3143.95 695.716C3215.88 695.716 3265.83 657.754 3283.15 592.486H3344.42C3327.1 689.056 3249.85 748.996 3144.62 748.996ZM3361.76 332.08V278.8H3722.07V332.08H3570.88V745H3512.94V332.08H3361.76Z" fill="black"/>
<path d="M1724 1441V741H1992C2132 741 2225 825 2225 956C2225 1054 2166 1130 2076 1155L2233 1441H2135L1987 1172H1811V1441H1724ZM1986 821H1811V1092H1985C2077 1092 2136 1038 2136 956C2136 874 2077 821 1986 821ZM2354.66 1441H2264.66L2531.66 741H2634.66L2900.66 1441H2807.66L2733.66 1252H2428.66L2354.66 1441ZM2580.66 836L2454.66 1173H2707.66L2580.66 836ZM3077.16 1441L2825.16 741H2917.16L3131.16 1338L3344.16 741H3434.16L3182.16 1441H3077.16ZM3511.11 1441V741H3957.11V821H3598.11V1045H3897.11V1125H3598.11V1361H3970.11V1441H3511.11ZM4152.75 1441H4067.75V741H4147.75L4523.75 1281V741H4608.75V1441H4528.75L4152.75 901V1441Z" fill="black"/>
<path d="M427 21.5L136 258.5L185 277L37.5 554L103 502.5L56 716V782L0 875.5V1026L173.5 1331L497.5 1610.5V1577.5L530.5 1598.5L715.5 1835.5L516 2084.5H338L286 2164.5L640.5 2152.5L669 2084.5H654.5L640.5 2061L856.5 1812L838 1725.5L953 1770L1007 1861.5L882.5 2084.5H715.5L669 2164.5H1154.5L1091.5 2084.5H1007L990.5 2061L1154.5 1812V1753.5L1349.5 1835.5L1596 2103.5L2293 2239.5L1983 1965V1936.5L2293 2061L1802.5 1610.5L1833 1563.5L1783.5 1413L1377.5 988.5L1091.5 674L838 566L772 420.5L859 305.5C899.667 302.333 989 295.5 1021 293.5C1053 291.5 1117.33 269.333 1145.5 258.5L1187.5 275C1169.5 243.667 1125.1 173.5 1091.5 143.5C1057.9 113.5 864.5 85.6667 772 75.5L758 56.5L600.5 0L427 21.5Z" fill="black"/>
<circle cx="588" cy="152" r="48" fill="#FF0000"/>
</svg>
